PathFileType	4	(X/Y/Z)	C:\Data\4407\4407cd05.trc
DataRate	CameraRate	NumFrames	NumMarkers	Units	OrigDataRate	OrigDataStartFrame	OrigNumFrames
200.00	200.00	      8	29	mm	200.00	751	      2000
Frame#	Time	Offset			RShoulder			RUpperArm			RElbow			RForearm			RWrist			LShoulder			LUpperArm			LElbow			LForearm			LWrist			LPSIS			RPSIS			RASIS			RThigh			RKnee			RShank			RAnkle			RHeel			RLat5			RToe			LASIS			LThigh			LKnee			LShank			LAnkle			LHeel			LLat5			LToe			
		X1	Y1	Z1	X2	Y2	Z2	X3	Y3	Z3	X4	Y4	Z4	X5	Y5	Z5	X6	Y6	Z6	X7	Y7	Z7	X8	Y8	Z8	X9	Y9	Z9	X10	Y10	Z10	X11	Y11	Z11	X12	Y12	Z12	X13	Y13	Z13	X14	Y14	Z14	X15	Y15	Z15	X16	Y16	Z16	X17	Y17	Z17	X18	Y18	Z18	X19	Y19	Z19	X20	Y20	Z20	X21	Y21	Z21	X22	Y22	Z22	X23	Y23	Z23	X24	Y24	Z24	X25	Y25	Z25	X26	Y26	Z26	X27	Y27	Z27	X28	Y28	Z28	X29	Y29	Z29	

751	3.750	373.07950	-264.90073	1404.96167	454.47229	-128.17854	1531.51672	519.77802	-216.09935	1354.53516	591.04242	-152.62143	1217.93982	481.71310	-26.50056	1185.52795	471.74240	66.27433	1279.34863	122.23989	-201.28371	1539.01978	138.32159	-373.57187	1428.44910	52.57397	-447.08401	1346.72729	74.49224	-371.93619	1198.54736	60.27423	-221.95200	1175.38892	259.34341	-276.62146	1054.36047	310.61090	-276.74435	1052.08875	417.29761	-72.55882	1007.00659	350.04361	-161.13617	691.12036	407.68091	-328.64221	551.79877	366.39127	-338.17535	469.91019	356.53714	-593.60248	230.86104	300.71735	-638.33441	266.40198	275.17599	-545.57562	78.68097	379.43918	-577.05872	76.82803	173.40462	-65.95629	1036.63196	196.40805	129.48320	878.74878	139.95621	204.62212	715.71039	189.11478	222.00670	627.97668	178.02275	-30.74105	361.86060	233.95065	-94.06063	364.64273	140.58942	63.68105	240.14124	249.74252	69.73969	222.27380	
752	3.755	373.55591	-264.34909	1407.37183	453.49094	-128.58492	1535.59314	519.48877	-215.54907	1359.23096	592.45856	-151.35417	1223.48315	480.99365	-27.48114	1191.56360	468.82492	64.91821	1285.79956	121.78714	-202.08203	1542.01062	140.41701	-374.45053	1432.48267	55.69711	-450.16501	1351.80188	76.18321	-374.48642	1203.63867	59.79607	-224.66998	1180.51086	258.86530	-274.75607	1057.85669	310.48642	-275.27014	1056.78552	416.96887	-71.50886	1009.48706	353.05106	-162.75377	693.66510	408.75998	-332.37518	557.07849	367.54138	-342.93301	474.33768	357.40137	-602.71906	240.82881	303.22137	-644.91724	279.56738	276.95956	-560.47412	85.50574	378.61728	-594.41742	83.63194	174.27534	-65.81231	1039.24609	196.44679	130.69565	880.73138	140.62685	204.07698	716.93280	189.12766	223.65637	629.74072	176.89737	-15.55890	351.15060	232.61319	-79.62257	351.07892	141.39702	84.55216	233.58128	250.87633	90.95583	217.18103	
753	3.760	373.85764	-263.87109	1409.79529	452.53726	-128.72670	1539.38794	519.25500	-215.15248	1363.69556	594.19128	-150.48038	1228.57971	480.56296	-28.28542	1196.95544	466.14249	63.44952	1291.51636	121.35947	-202.90160	1544.74084	142.15898	-375.17972	1436.20898	58.55444	-452.98892	1356.25867	77.77060	-376.66513	1208.24878	59.22245	-227.11012	1185.29675	258.64502	-273.46420	1061.78210	310.19080	-274.00595	1061.38660	416.79395	-70.59113	1012.33527	355.59073	-163.04068	696.64703	409.68729	-334.70261	561.53033	368.50458	-346.57166	478.02057	357.85931	-611.82654	251.23203	300.75079	-650.07605	292.66769	277.81320	-576.02081	93.02682	378.14331	-611.33081	91.84780	173.84621	-63.14685	1044.81909	196.82613	131.89391	881.82239	140.95222	202.81181	717.08423	189.14937	224.09152	630.11554	175.62703	-0.99259	340.38693	231.00150	-65.43688	337.60696	142.55099	105.08282	227.31178	252.21843	111.67704	212.71846	
754	3.765	374.39355	-263.18979	1412.00134	451.73434	-128.90778	1542.90198	519.42084	-214.94679	1368.09631	595.86169	-149.57695	1233.63403	480.45502	-29.29907	1201.55273	463.63596	61.95650	1296.68298	120.91361	-203.52454	1547.10278	143.59041	-375.64136	1439.42163	61.09768	-455.44376	1359.98853	79.14707	-378.45245	1212.26892	58.47538	-229.37952	1189.72742	258.32599	-272.25558	1065.97595	309.68002	-272.93182	1065.86670	416.60123	-69.67073	1015.54126	357.35300	-162.59576	699.70142	410.59787	-335.59604	565.20837	368.72440	-349.13193	481.12830	358.31729	-620.69025	261.88364	302.70047	-657.01404	305.30084	276.80389	-591.87689	102.66685	377.69574	-627.84100	102.82584	173.90207	-62.77875	1047.34497	197.70627	132.75890	882.27179	141.24147	201.07826	716.13916	189.21974	224.44672	629.68878	174.05022	13.07108	329.71329	229.48135	-51.25622	324.53098	143.92256	125.20109	221.32936	253.56870	131.58641	208.81271	
755	3.770	374.36703	-262.49518	1413.63501	451.00601	-129.20114	1546.15503	520.57745	-215.00006	1371.93726	597.43640	-148.89955	1238.11401	480.48340	-30.37441	1205.45215	461.22244	60.41117	1301.26733	120.41612	-204.13490	1549.24280	144.76089	-376.32245	1442.50806	63.47059	-457.50461	1363.13647	80.42238	-379.91138	1215.73242	57.76166	-231.11629	1193.55945	258.01746	-271.48886	1069.53601	309.20810	-271.99307	1069.92749	416.32095	-68.87105	1018.84979	358.92245	-161.11812	702.53656	411.53540	-335.20248	567.87872	368.80194	-350.65192	483.47000	358.29312	-629.58044	272.84875	303.28656	-664.42487	318.15137	275.64743	-607.12939	113.96365	377.12863	-642.31219	115.30880	173.93655	-62.33298	1049.41577	199.01724	133.38805	882.03058	141.40041	198.76036	714.12537	187.86551	222.63618	629.22070	172.43544	26.99264	319.33670	227.58455	-37.62532	311.71799	145.29211	144.43948	215.65894	255.19348	150.40395	205.33087	
756	3.775	374.34604	-262.17056	1415.65991	450.39014	-129.35957	1549.15686	520.86853	-214.13136	1376.18347	599.05060	-148.46387	1242.37988	480.49789	-31.21497	1208.74255	458.84100	58.78091	1305.01758	119.99850	-204.59958	1551.18359	145.42668	-376.89999	1445.05383	65.58698	-459.37164	1365.72302	81.40224	-380.91827	1218.56445	56.75016	-232.41771	1196.87891	257.68948	-270.65451	1072.60718	308.53967	-271.17395	1073.68140	416.19458	-68.71993	1022.70844	359.54202	-159.49123	704.93372	412.58871	-334.05933	570.00690	368.83899	-351.67868	485.88477	358.39160	-638.23737	284.61407	303.96640	-672.82098	331.43903	274.97174	-621.05548	125.69019	376.53445	-653.93610	128.45187	173.61420	-62.28064	1051.10486	200.28096	133.21738	880.98212	141.51042	195.43407	711.43506	187.18404	221.31282	627.86951	171.09595	40.62551	309.02390	225.53749	-24.21284	299.31378	146.67520	162.88622	210.11063	256.81308	168.27222	202.23880	
757	3.780	374.21970	-262.00168	1417.67932	449.96655	-129.39809	1551.92151	522.14044	-213.52087	1379.50549	600.70386	-148.02344	1246.44141	480.97772	-32.10098	1211.43323	456.74173	57.20498	1308.17444	119.48795	-205.15004	1552.96033	145.96114	-377.84793	1447.37036	67.34629	-460.82190	1367.69958	82.21932	-381.53125	1220.88123	55.82525	-233.41975	1199.81848	257.40216	-270.40112	1075.57751	308.22949	-270.46255	1076.64685	415.87317	-67.89871	1025.59473	360.21817	-156.71176	707.28650	413.08417	-331.93900	571.47089	369.06226	-352.58975	487.52017	357.31622	-647.11542	297.18246	303.30804	-679.50330	344.31757	274.29855	-633.59540	137.60196	376.06812	-666.22070	141.02087	173.26521	-62.27127	1052.21045	201.50658	132.34129	878.85181	140.90402	190.86807	707.45160	187.10109	219.91226	626.05286	169.94882	53.86912	298.94614	223.42081	-11.17321	287.30850	148.22179	180.44670	204.72879	258.57544	185.28531	199.09567	
758	3.785	373.59357	-262.00684	1419.61121	449.49374	-129.47697	1554.44836	523.86383	-212.78085	1383.05652	601.95856	-147.78467	1250.19739	481.57092	-33.06185	1213.55420	454.61371	55.38335	1310.23779	118.90867	-205.58252	1554.49023	146.06366	-378.32849	1448.78430	68.76525	-461.85925	1369.16736	82.64820	-381.75897	1222.68665	54.75686	-234.18741	1202.24561	257.47784	-270.09158	1077.37366	308.07620	-269.93652	1079.15222	415.68787	-66.97232	1028.58801	360.41586	-153.92657	709.05896	413.48502	-329.25775	572.16608	370.93011	-353.93127	490.31674	356.26196	-654.92230	309.56314	302.67664	-685.66412	357.37262	273.39020	-646.10638	149.96536	375.72894	-677.11304	154.22609	172.88120	-62.26113	1052.80103	202.55614	128.09044	874.17560	141.46771	186.55853	703.34692	186.95122	217.49925	623.48962	169.03824	66.86168	289.16525	221.46750	1.48408	275.71671	149.83907	197.46606	199.55505	260.29218	200.78380	195.88608	
